# xmcd CD database file
#
# Track frame offsets:
#	150
#	19009
#	33648
#	49501
#	67192
#	84227
#	92306
#	106990
#	120622
#	133141
#	142815
#	161041
#	173395
#	183770
#
# Disc length: 2758 seconds
#
# Revision: 0
# Processed by: cddbd v1.5.2PL0 Copyright (c) Steve Scherf et al.
# Submitted via: CDex 1.70beta2
#
DISCID=a90ac40e
DTITLE=Johnny Cash - At San Quentin_Legacy edition
DYEAR=2006
DGENRE=Country
TTITLE0=San Quentin_1
TTITLE1=San Quentin_2
TTITLE2=Wanted Man
TTITLE3=Restless
TTITLE4=A Boy Named Sue
TTITLE5=Blistered
TTITLE6=(There'll Be) Peace in the Valley
TTITLE7=The Outside Looking In
TTITLE8=Less Of Me
TTITLE9=Ring Of Fire
TTITLE10=He Turned The Water Into Wine
TTITLE11=Daddy Sang Bass
TTITLE12=The Old Account Was Sattled Long Ago
TTITLE13=Closing Medley 
EXTD=YEAR: 2006
EXTT0=
EXTT1=
EXTT2=
EXTT3=
EXTT4=
EXTT5=
EXTT6=
EXTT7=
EXTT8=
EXTT9=
EXTT10=
EXTT11=
EXTT12=
EXTT13=
PLAYORDER=
